<svg width="24" height="24" viewBox="0 0 24 24" fill="none" xmlns="http://www.w3.org/2000/svg">
<circle cx="12" cy="12" r="10" fill="#FAFAFA"/>
<path d="M12.514 7C13.0765 7.0015 13.362 7.0045 13.6085 7.0115L13.7054 7.015C13.8174 7.019 13.9279 7.024 14.0614 7.03C14.5934 7.055 14.9564 7.139 15.2749 7.26249C15.6048 7.38949 15.8828 7.56149 16.1608 7.83898C16.4151 8.08892 16.6118 8.39126 16.7373 8.72496C16.8608 9.04345 16.9448 9.40644 16.9698 9.93893C16.9758 10.0719 16.9808 10.1824 16.9848 10.2949L16.9878 10.3919C16.9953 10.6379 16.9983 10.9234 16.9993 11.4859L16.9998 11.8589V12.5139C17.001 12.8786 16.9972 13.2433 16.9883 13.6078L16.9853 13.7048C16.9813 13.8173 16.9763 13.9278 16.9703 14.0608C16.9453 14.5933 16.8603 14.9558 16.7373 15.2748C16.6121 15.6087 16.4154 15.9111 16.1608 16.1608C15.9108 16.4149 15.6085 16.6117 15.2749 16.7373C14.9564 16.8608 14.5934 16.9448 14.0614 16.9698C13.9428 16.9754 13.8241 16.9804 13.7054 16.9848L13.6085 16.9878C13.362 16.9948 13.0765 16.9983 12.514 16.9993L12.141 16.9998H11.4866C11.1217 17.001 10.7569 16.9972 10.3921 16.9883L10.2951 16.9853C10.1764 16.9808 10.0578 16.9756 9.93914 16.9698C9.40717 16.9448 9.04418 16.8608 8.7252 16.7373C8.39155 16.612 8.08934 16.4152 7.83975 16.1608C7.58528 15.9109 7.38838 15.6086 7.26278 15.2748C7.13928 14.9563 7.05529 14.5933 7.03029 14.0608C7.02472 13.9422 7.01972 13.8235 7.01529 13.7048L7.01279 13.6078C7.00357 13.2433 6.99941 12.8786 7.00029 12.5139V11.4859C6.99889 11.1212 7.00256 10.7565 7.01129 10.3919L7.01479 10.2949C7.01879 10.1824 7.02379 10.0719 7.02979 9.93893C7.05479 9.40644 7.13878 9.04395 7.26228 8.72496C7.38783 8.39092 7.58512 8.08849 7.84025 7.83898C8.08978 7.58472 8.39179 7.38798 8.7252 7.26249C9.04418 7.139 9.40667 7.055 9.93914 7.03C10.0721 7.024 10.1831 7.019 10.2951 7.015L10.3921 7.012C10.7567 7.00312 11.1214 6.99928 11.4861 7.0005L12.514 7ZM12 9.49994C11.337 9.49994 10.7012 9.76333 10.2324 10.2322C9.76354 10.701 9.50016 11.3369 9.50016 11.9999C9.50016 12.6629 9.76354 13.2988 10.2324 13.7676C10.7012 14.2364 11.337 14.4998 12 14.4998C12.663 14.4998 13.2989 14.2364 13.7677 13.7676C14.2365 13.2988 14.4999 12.6629 14.4999 11.9999C14.4999 11.3369 14.2365 10.701 13.7677 10.2322C13.2989 9.76333 12.663 9.49994 12 9.49994ZM12 10.4999C12.197 10.4999 12.3921 10.5387 12.574 10.614C12.756 10.6894 12.9214 10.7998 13.0607 10.9391C13.2 11.0783 13.3105 11.2437 13.3859 11.4256C13.4613 11.6076 13.5002 11.8027 13.5002 11.9996C13.5002 12.1966 13.4615 12.3917 13.3861 12.5737C13.3108 12.7557 13.2003 12.921 13.0611 13.0603C12.9218 13.1996 12.7565 13.3102 12.5745 13.3856C12.3925 13.461 12.1975 13.4998 12.0005 13.4998C11.6027 13.4998 11.2212 13.3418 10.9399 13.0605C10.6586 12.7792 10.5006 12.3977 10.5006 11.9999C10.5006 11.6021 10.6586 11.2205 10.9399 10.9392C11.2212 10.6579 11.6027 10.4999 12.0005 10.4999M14.6254 8.74996C14.4596 8.74996 14.3007 8.81581 14.1835 8.93301C14.0663 9.05022 14.0004 9.20919 14.0004 9.37494C14.0004 9.5407 14.0663 9.69967 14.1835 9.81688C14.3007 9.93408 14.4596 9.99993 14.6254 9.99993C14.7911 9.99993 14.9501 9.93408 15.0673 9.81688C15.1845 9.69967 15.2504 9.5407 15.2504 9.37494C15.2504 9.20919 15.1845 9.05022 15.0673 8.93301C14.9501 8.81581 14.7911 8.74996 14.6254 8.74996Z" fill="#242321"/>
</svg>
