<svg width="24" height="24" viewBox="0 0 24 24" fill="none" xmlns="http://www.w3.org/2000/svg">
<circle cx="12" cy="12" r="10" fill="#FAFAFA"/>
<path d="M16.1478 8.07063C16.1478 8.07063 17.0728 7.72435 16.9954 8.56526C16.9699 8.91154 16.7387 10.1237 16.5587 11.4345L15.9421 15.3179C15.9421 15.3179 15.8906 15.8868 15.428 15.9858C14.9656 16.0845 14.2718 15.6395 14.1432 15.5405C14.0404 15.4663 12.2161 14.3531 11.5737 13.8091C11.3937 13.6606 11.188 13.3639 11.5994 13.0176L14.2975 10.544C14.6059 10.2469 14.9142 9.55428 13.6294 10.3954L10.0318 12.7451C10.0318 12.7451 9.62057 12.9927 8.84985 12.77L7.17936 12.2752C7.17936 12.2752 6.56268 11.9042 7.61627 11.5332C10.1861 10.3707 13.3468 9.18354 16.1475 8.0704" fill="#22211F"/>
</svg>
