<svg width="24" height="24" viewBox="0 0 24 24" fill="none" xmlns="http://www.w3.org/2000/svg">
<circle cx="12" cy="12" r="10" fill="#FAFAFA"/>
<path d="M15.1403 8.56667C14.7479 8.13312 14.5317 7.57635 14.5319 7H12.7583V13.8889C12.7446 14.2617 12.582 14.6148 12.3047 14.8739C12.0274 15.1329 11.6571 15.2777 11.2717 15.2778C10.4566 15.2778 9.77934 14.6333 9.77934 13.8333C9.77934 12.8778 10.7321 12.1611 11.7136 12.4556V10.7C9.73342 10.4444 8 11.9333 8 13.8333C8 15.6833 9.58418 17 11.2659 17C13.0682 17 14.5319 15.5833 14.5319 13.8333V10.3389C15.2511 10.8388 16.1146 11.107 17 11.1056V9.38889C17 9.38889 15.9209 9.43889 15.1403 8.56667Z" fill="#242321"/>
</svg>
