<svg width="24" height="24" viewBox="0 0 24 24" fill="none" xmlns="http://www.w3.org/2000/svg">
<circle cx="12" cy="12" r="10" fill="#FAFAFA"/>
<path fill-rule="evenodd" clip-rule="evenodd" d="M9.22222 7C8.63285 7 8.06762 7.23413 7.65087 7.65087C7.23413 8.06762 7 8.63285 7 9.22222V14.7778C7 15.3671 7.23413 15.9324 7.65087 16.3491C8.06762 16.7659 8.63285 17 9.22222 17H14.7778C15.3671 17 15.9324 16.7659 16.3491 16.3491C16.7659 15.9324 17 15.3671 17 14.7778V9.22222C17 8.63285 16.7659 8.06762 16.3491 7.65087C15.9324 7.23413 15.3671 7 14.7778 7H9.22222ZM14.9622 10.9194C15.044 10.7969 15.0737 10.6468 15.0449 10.5023C15.016 10.3578 14.9309 10.2307 14.8083 10.1489C14.6857 10.0671 14.5357 10.0374 14.3912 10.0662C14.2467 10.0951 14.1196 10.1802 14.0378 10.3028C13.8411 10.5639 13.635 10.8139 13.3939 11.0361C13.1144 11.2939 12.8317 11.4872 12.5561 11.6017L12.5517 10.5461C12.5357 10.411 12.4708 10.2864 12.3691 10.196C12.2674 10.1055 12.1361 10.0556 12 10.0556C11.6989 10.0728 11.4444 10.295 11.4444 10.6111V13.0406C10.3622 12.7406 9.77778 11.6906 9.77778 10.6111C9.77778 10.4638 9.71925 10.3225 9.61506 10.2183C9.51087 10.1141 9.36956 10.0556 9.22222 10.0556C9.07488 10.0556 8.93357 10.1141 8.82939 10.2183C8.7252 10.3225 8.66667 10.4638 8.66667 10.6111C8.66667 12.6289 10.0611 14.2222 12 14.2222C12.1473 14.2222 12.2887 14.1637 12.3928 14.0595C12.497 13.9553 12.5556 13.814 12.5556 13.6667V12.7983C13.2956 12.8572 14.0133 13.38 14.2811 13.915C14.3123 13.9825 14.3568 14.0431 14.4118 14.0932C14.4669 14.1432 14.5314 14.1817 14.6017 14.2063C14.6719 14.2309 14.7463 14.2412 14.8206 14.2365C14.8948 14.2318 14.9674 14.2122 15.0339 14.1789C15.1005 14.1457 15.1596 14.0994 15.208 14.0428C15.2563 13.9862 15.2927 13.9205 15.3152 13.8495C15.3376 13.7786 15.3455 13.7039 15.3386 13.6298C15.3316 13.5557 15.3098 13.4838 15.2744 13.4183C15.0089 12.8867 14.5133 12.3894 13.9033 12.065C13.9856 11.9978 14.0672 11.9267 14.1478 11.8528C14.4539 11.5736 14.7271 11.2605 14.9622 10.9194Z" fill="#242321"/>
</svg>
