<svg width="24" height="24" viewBox="0 0 24 24" fill="none" xmlns="http://www.w3.org/2000/svg">
<circle cx="12" cy="12" r="10" fill="#FAFAFA"/>
<path d="M12 7C14.7615 7 17 9.2385 17 12C17 14.7615 14.7615 17 12 17C11.1164 17.0014 10.2483 16.7676 9.48501 16.3225L7.00201 17L7.67801 14.516C7.23255 13.7524 6.99853 12.884 7.00001 12C7.00001 9.2385 9.23851 7 12 7ZM10.296 9.65L10.196 9.654C10.1313 9.65794 10.068 9.67495 10.01 9.704C9.95577 9.73471 9.90625 9.77311 9.86301 9.818C9.80301 9.8745 9.76901 9.9235 9.73251 9.971C9.54757 10.2114 9.44799 10.5067 9.44951 10.81C9.45051 11.055 9.51451 11.2935 9.61451 11.5165C9.81901 11.9675 10.1555 12.445 10.5995 12.8875C10.7065 12.994 10.8115 13.101 10.9245 13.2005C11.4762 13.6862 12.1336 14.0365 12.8445 14.2235L13.1285 14.267C13.221 14.272 13.3135 14.265 13.4065 14.2605C13.5521 14.253 13.6943 14.2135 13.823 14.145C13.8885 14.1113 13.9524 14.0746 14.0145 14.035C14.0145 14.035 14.036 14.021 14.077 13.99C14.1445 13.94 14.186 13.9045 14.242 13.846C14.2835 13.803 14.3195 13.7525 14.347 13.695C14.386 13.6135 14.425 13.458 14.441 13.3285C14.453 13.2295 14.4495 13.1755 14.448 13.142C14.446 13.0885 14.4015 13.033 14.353 13.0095L14.062 12.879C14.062 12.879 13.627 12.6895 13.361 12.5685C13.3332 12.5563 13.3033 12.5494 13.273 12.548C13.2388 12.5445 13.2042 12.5483 13.1716 12.5593C13.139 12.5702 13.1092 12.588 13.084 12.6115C13.0815 12.6105 13.048 12.639 12.6865 13.077C12.6658 13.1049 12.6372 13.1259 12.6044 13.1375C12.5716 13.1491 12.5362 13.1507 12.5025 13.142C12.4699 13.1333 12.438 13.1222 12.407 13.109C12.345 13.083 12.3235 13.073 12.281 13.055C11.994 12.9298 11.7283 12.7606 11.4935 12.5535C11.4305 12.4985 11.372 12.4385 11.312 12.3805C11.1153 12.1921 10.9439 11.979 10.802 11.7465L10.7725 11.699C10.7513 11.6671 10.7342 11.6326 10.7215 11.5965C10.7025 11.523 10.752 11.464 10.752 11.464C10.752 11.464 10.8735 11.331 10.93 11.259C10.985 11.189 11.0315 11.121 11.0615 11.0725C11.1205 10.9775 11.139 10.88 11.108 10.8045C10.968 10.4625 10.823 10.122 10.674 9.784C10.6445 9.717 10.557 9.669 10.4775 9.6595C10.4505 9.6565 10.4235 9.6535 10.3965 9.6515C10.3294 9.64816 10.2621 9.64883 10.195 9.6535L10.296 9.65Z" fill="#232220"/>
</svg>
